<?xml version="1.0" encoding="iso-8859-1"?>
<!-- Generator: Adobe Illustrator 19.0.0, SVG Export Plug-In . SVG Version: 6.00 Build 0)  -->
<svg version="1.1" id="Capa_1" xmlns="http://www.w3.org/2000/svg" xmlns:xlink="http://www.w3.org/1999/xlink" x="0px" y="0px"
	 viewBox="0 0 303.297 303.297" style="enable-background:new 0 0 303.297 303.297;" xml:space="preserve">
<g id="XMLID_92_">
	<path id="XMLID_503_" d="M106.648,36v155.369c-8.833-5.123-19.075-8.072-30-8.072c-33.084,0-60,26.916-60,60s26.916,60,60,60
		s60-26.916,60-60V60.594l120-24v124.775c-8.832-5.123-19.075-8.072-30-8.072c-33.084,0-60,26.916-60,60s26.916,60,60,60
		s60-26.916,60-60V0L106.648,36z M76.648,273.297c-16.542,0-30-13.458-30-30s13.458-30,30-30s30,13.458,30,30
		S93.19,273.297,76.648,273.297z M226.648,243.297c-16.542,0-30-13.458-30-30s13.458-30,30-30s30,13.458,30,30
		S243.19,243.297,226.648,243.297z"/>
</g>
<g>
</g>
<g>
</g>
<g>
</g>
<g>
</g>
<g>
</g>
<g>
</g>
<g>
</g>
<g>
</g>
<g>
</g>
<g>
</g>
<g>
</g>
<g>
</g>
<g>
</g>
<g>
</g>
<g>
</g>
</svg>
