<?xml version="1.0" encoding="iso-8859-1"?>
<!-- Generator: Adobe Illustrator 19.0.0, SVG Export Plug-In . SVG Version: 6.00 Build 0)  -->
<svg version="1.1" id="Layer_1" xmlns="http://www.w3.org/2000/svg" xmlns:xlink="http://www.w3.org/1999/xlink" x="0px" y="0px"
	 viewBox="0 0 511.999 511.999" style="enable-background:new 0 0 511.999 511.999;" xml:space="preserve">
<g>
	<g>
		<path d="M468.945,85.413H337.176V64.732c0-19.097-15.537-34.634-34.635-34.634h-93.082c-19.098,0-34.635,15.537-34.635,34.634
			v20.681H43.055C19.314,85.413,0,104.728,0,128.468v290.09c0,23.74,19.314,43.054,43.055,43.054h2.206v3.603
			c0,9.215,7.471,16.686,16.686,16.686c9.215,0,16.686-7.471,16.686-16.686v-3.603h354.732v3.603
			c0,9.215,7.471,16.686,16.686,16.686c9.215,0,16.686-7.471,16.686-16.686v-3.603h2.206c23.741,0,43.055-19.314,43.055-43.054
			v-290.09C512,104.728,492.685,85.413,468.945,85.413z M209.459,63.47h93.082c0.695,0,1.263,0.566,1.263,1.261v20.681h-95.606
			V64.732h-0.001C208.196,64.037,208.762,63.47,209.459,63.47z M478.628,418.559c0,5.338-4.344,9.681-9.682,9.681H43.055
			c-5.338,0-9.682-4.343-9.682-9.681V128.468c0-5.34,4.344-9.682,9.682-9.682c16.224,0,406.145,0,425.89,0
			c5.339,0,9.682,4.343,9.682,9.682V418.559z"/>
	</g>
</g>
<g>
	<g>
		<path d="M433.144,179.034H73.133c-9.215,0-16.686,7.471-16.686,16.686v194.571c0,9.215,7.471,16.686,16.686,16.686h360.011
			c9.215,0,16.686-7.471,16.686-16.686V195.72C449.83,186.505,442.359,179.034,433.144,179.034z M416.458,373.606H89.82v-161.2
			h326.638V373.606z"/>
	</g>
</g>
<g>
	<g>
		<circle cx="75.144" cy="149.175" r="15.607"/>
	</g>
</g>
<g>
	<g>
		<circle cx="132.711" cy="149.175" r="15.607"/>
	</g>
</g>
<g>
	<g>
		<circle cx="190.29" cy="149.175" r="15.607"/>
	</g>
</g>
<g>
	<g>
		<circle cx="247.868" cy="149.175" r="15.607"/>
	</g>
</g>
<g>
	<g>
		<path d="M433.144,132.492H310.366c-9.215,0-16.686,7.471-16.686,16.686c0,9.215,7.471,16.686,16.686,16.686h122.778
			c9.215,0,16.686-7.471,16.686-16.686C449.831,139.963,442.359,132.492,433.144,132.492z"/>
	</g>
</g>
<g>
	<g>
		<path d="M267.809,271.915H132.716c-9.215,0-16.686,7.471-16.686,16.686c0,9.215,7.471,16.686,16.686,16.686h135.094
			c9.215,0,16.686-7.471,16.686-16.686C284.496,279.386,277.025,271.915,267.809,271.915z"/>
	</g>
</g>
<g>
	<g>
		<path d="M375.917,271.915h-60.349c-9.215,0-16.686,7.471-16.686,16.686c0,9.215,7.471,16.686,16.686,16.686h60.349
			c9.215,0,16.686-7.471,16.686-16.686C392.603,279.386,385.132,271.915,375.917,271.915z"/>
	</g>
</g>
<g>
	<g>
		<path d="M375.917,322.622H132.716c-9.215,0-16.686,7.471-16.686,16.686c0,9.215,7.471,16.686,16.686,16.686h243.202
			c9.215,0,16.686-7.471,16.686-16.686C392.603,330.093,385.132,322.622,375.917,322.622z"/>
	</g>
</g>
<g>
	<g>
		<path d="M375.917,224.816H232.257c-9.215,0-16.686,7.471-16.686,16.686c0,9.215,7.47,16.686,16.686,16.686h143.661
			c9.215,0,16.686-7.471,16.686-16.686C392.603,232.287,385.132,224.816,375.917,224.816z"/>
	</g>
</g>
<g>
	<g>
		<path d="M184.654,224.816h-51.939c-9.215,0-16.686,7.471-16.686,16.686c0,9.215,7.471,16.686,16.686,16.686h51.939
			c9.215,0,16.686-7.471,16.686-16.686C201.34,232.287,193.869,224.816,184.654,224.816z"/>
	</g>
</g>
<g>
</g>
<g>
</g>
<g>
</g>
<g>
</g>
<g>
</g>
<g>
</g>
<g>
</g>
<g>
</g>
<g>
</g>
<g>
</g>
<g>
</g>
<g>
</g>
<g>
</g>
<g>
</g>
<g>
</g>
</svg>
