<?xml version="1.0" encoding="iso-8859-1"?>
<!-- Generator: Adobe Illustrator 19.0.0, SVG Export Plug-In . SVG Version: 6.00 Build 0)  -->
<svg version="1.1" id="Layer_1" xmlns="http://www.w3.org/2000/svg" xmlns:xlink="http://www.w3.org/1999/xlink" x="0px" y="0px"
	 viewBox="0 0 512 512" style="enable-background:new 0 0 512 512;" xml:space="preserve">
<g>
	<g>
		<g>
			<path d="M490.667,0H21.333C9.551,0,0,9.551,0,21.333v85.333v298.667v85.333C0,502.449,9.551,512,21.333,512h469.333
				c11.782,0,21.333-9.551,21.333-21.333v-85.333V106.667V21.333C512,9.551,502.449,0,490.667,0z M42.667,128h426.667v256H42.667
				V128z M42.667,42.667h426.667v42.667H42.667V42.667z M469.333,469.333H42.667v-42.667h426.667V469.333z"/>
			<path d="M352,170.667c-41.243,0-74.667,33.423-74.667,74.667S310.757,320,352,320s74.667-33.423,74.667-74.667
				S393.243,170.667,352,170.667z M352,277.333c-17.679,0-32-14.321-32-32s14.321-32,32-32s32,14.321,32,32
				S369.679,277.333,352,277.333z"/>
			<path d="M106.667,170.667c-11.782,0-21.333,9.551-21.333,21.333v128c0,11.782,9.551,21.333,21.333,21.333
				c11.782,0,21.333-9.551,21.333-21.333V192C128,180.218,118.449,170.667,106.667,170.667z"/>
			<path d="M213.333,170.667C201.551,170.667,192,180.218,192,192v128c0,11.782,9.551,21.333,21.333,21.333
				c11.782,0,21.333-9.551,21.333-21.333V192C234.667,180.218,225.115,170.667,213.333,170.667z"/>
		</g>
	</g>
</g>
<g>
</g>
<g>
</g>
<g>
</g>
<g>
</g>
<g>
</g>
<g>
</g>
<g>
</g>
<g>
</g>
<g>
</g>
<g>
</g>
<g>
</g>
<g>
</g>
<g>
</g>
<g>
</g>
<g>
</g>
</svg>
