<?xml version="1.0" encoding="UTF-8" standalone="no"?>
<!-- Generator: Adobe Illustrator 17.1.0, SVG Export Plug-In . SVG Version: 6.00 Build 0)  -->

<svg
   version="1.1"
   id="Capa_1"
   x="0px"
   y="0px"
   viewBox="0 0 454.906 454.906"
   style="enable-background:new 0 0 454.906 454.906;"
   xml:space="preserve"
   sodipodi:docname="vs-microphone.svg"
   inkscape:version="1.1.2 (b8e25be833, 2022-02-05)"
   xmlns:inkscape="http://www.inkscape.org/namespaces/inkscape"
   xmlns:sodipodi="http://sodipodi.sourceforge.net/DTD/sodipodi-0.dtd"
   xmlns="http://www.w3.org/2000/svg"
   xmlns:svg="http://www.w3.org/2000/svg"><defs
   id="defs45" /><sodipodi:namedview
   id="namedview43"
   pagecolor="#ffffff"
   bordercolor="#666666"
   borderopacity="1.0"
   inkscape:pageshadow="2"
   inkscape:pageopacity="0.0"
   inkscape:pagecheckerboard="0"
   showgrid="false"
   inkscape:zoom="1.8025702"
   inkscape:cx="227.17562"
   inkscape:cy="227.17562"
   inkscape:window-width="1920"
   inkscape:window-height="1013"
   inkscape:window-x="-9"
   inkscape:window-y="-9"
   inkscape:window-maximized="1"
   inkscape:current-layer="Capa_1" />
<g
   id="g10">
	<path
   id="path2"
   d="M 336.125,0.74609375 C 312.16542,1.2441824 288.25841,9.0830765 268.11328,24.509766 c -3.289,2.518 -3.91153,7.225669 -1.39453,10.513672 2.517,3.287998 7.22367,3.916484 10.51367,1.396484 40.099,-30.7050005 97.31394,-26.8853292 133.08594,8.888672 35.773,35.772 39.59562,92.986936 8.89062,133.085936 -2.518,3.289 -1.89351,7.99567 1.39649,10.51367 1.36,1.042 2.96273,1.54492 4.55273,1.54492 2.255,0 4.48394,-1.01145 5.96094,-2.93945 35.258,-46.046 30.87664,-111.742498 -10.19336,-152.812498 C 397.82334,11.599297 366.93017,0.10569409 336.125,0.74609375 Z" />
	
	
	<path
   id="path8"
   d="m 254.7168,25.435547 c -1.91938,0 -3.83824,0.732765 -5.30274,2.197265 -4.044,4.045001 -7.3275,10.892047 -5.8125,22.373047 -14.13,20.044 -21.52734,44.128856 -21.15234,68.714841 l -31.51563,37.17578 c -0.084,0.097 -0.171,0.19197 -0.25,0.29297 L 12.320312,366.58984 c -17.5249975,20.673 -16.192298,53.0821 2.970704,72.2461 10.179,10.179 24.1165,15.34961 38.0625,15.34961 12.289,0 24.58364,-4.01997 34.30664,-12.16797 L 336.875,233.16797 c 0.608,0.01 1.21527,0.0293 1.82227,0.0293 23.964,0 47.36192,-7.3956 66.91992,-21.1836 1.913,0.255 3.76701,0.39453 5.54101,0.39453 6.83,0 12.57985,-1.93531 16.83985,-6.19531 2.93,-2.929 2.929,-7.67647 0,-10.60547 -2.929,-2.929 -7.67839,-2.929 -10.60743,0 -3.46399,3.46 -15.42089,2.50694 -34.33789,-7.41406 -20.159,-10.573 -43.33018,-28.462 -65.24218,-50.375 -21.913,-21.913 -39.80496,-45.083188 -50.37696,-65.242188 -9.923,-18.918 -10.87211,-30.877891 -7.41211,-34.337891 2.929,-2.929 2.929,-7.677468 0,-10.605469 -1.465,-1.4645 -3.38531,-2.197265 -5.30468,-2.197265 z m -5.41602,43.921875 c 1.352,3.181 2.95161,6.566547 4.84961,10.185547 11.258,21.464001 30.09969,45.926861 53.05469,68.880861 25.538,25.539 54.83864,47.6612 79.05664,57.9082 -38.591,20.469 -87.48697,13.88513 -119.16797,-17.79687 -31.686,-31.686 -38.26997,-80.58674 -17.79297,-119.177738 z m -24.68555,70.001958 c 4.427,22.53299 15.45814,43.3732 31.86915,59.7832 16.37599,16.376 37.16262,27.39579 59.64062,31.8418 l -23.30273,19.52929 c -11.233,-3.837 -21.92713,-9.06289 -31.82813,-15.58789 -3.459,-2.278 -8.10867,-1.32328 -10.38867,2.13672 -2.279,3.459 -1.32424,8.10867 2.13476,10.38867 8.479,5.587 17.48782,10.301 26.88282,14.125 L 78.025391,430.52148 c -14.949,12.529 -38.334958,11.50004 -52.126953,-2.29296 -13.778001,-13.777 -14.735719,-37.07746 -2.136719,-51.93946 L 193.88672,175.60547 c 7.818,19.301 19.5185,37.02726 34.3125,51.82226 1.465,1.464 3.38569,2.19532 5.30469,2.19532 1.919,0 3.83968,-0.73032 5.30468,-2.19532 2.929,-2.929 2.929,-7.67942 0,-10.60742 C 223.54059,201.55231 211.909,182.84205 205,162.49805 Z" />
</g>
<g
   id="g12">
</g>
<g
   id="g14">
</g>
<g
   id="g16">
</g>
<g
   id="g18">
</g>
<g
   id="g20">
</g>
<g
   id="g22">
</g>
<g
   id="g24">
</g>
<g
   id="g26">
</g>
<g
   id="g28">
</g>
<g
   id="g30">
</g>
<g
   id="g32">
</g>
<g
   id="g34">
</g>
<g
   id="g36">
</g>
<g
   id="g38">
</g>
<g
   id="g40">
</g>
</svg>
