<?xml version="1.0" encoding="iso-8859-1"?>
<!-- Generator: Adobe Illustrator 19.0.0, SVG Export Plug-In . SVG Version: 6.00 Build 0)  -->
<svg version="1.1" id="Layer_1" xmlns="http://www.w3.org/2000/svg" xmlns:xlink="http://www.w3.org/1999/xlink" x="0px" y="0px"
	 viewBox="0 0 512 512" style="enable-background:new 0 0 512 512;" xml:space="preserve">
<g>
	<g>
		<path d="M0,56.889v398.222h512V56.889H0z M477.867,420.978H34.133V91.022h443.733V420.978z"/>
	</g>
</g>
<g>
	<g>
		<path d="M199.111,125.156c-72.148,0-130.844,58.697-130.844,130.844s58.697,130.844,130.844,130.844S329.956,328.148,329.956,256
			S271.259,125.156,199.111,125.156z M199.111,352.711c-53.327,0-96.711-43.385-96.711-96.711s43.385-96.711,96.711-96.711
			c53.326,0,96.711,43.385,96.711,96.711C295.822,309.327,252.438,352.711,199.111,352.711z"/>
	</g>
</g>
<g>
	<g>
		<path d="M215.204,239.913c-4.297-4.3-10.014-6.669-16.094-6.669c-6.078,0-11.792,2.368-16.09,6.665
			c-8.872,8.872-8.872,23.309,0,32.181c4.3,4.299,10.015,6.665,16.092,6.665c6.081,0,11.798-2.369,16.089-6.665
			C224.073,263.218,224.073,248.782,215.204,239.913z"/>
	</g>
</g>
<g>
	<g>
		<path d="M159.289,256h-34.133c0,40.779,33.176,73.956,73.956,73.956v-34.133C177.153,295.822,159.289,277.958,159.289,256z"/>
	</g>
</g>
<g>
	<g>
		<path d="M199.111,182.044v34.133c21.958,0,39.822,17.864,39.822,39.822h34.133C273.067,215.221,239.89,182.044,199.111,182.044z"
			/>
	</g>
</g>
<g>
	<g>
		<path d="M398.222,147.911c-12.547,0-22.756,10.208-22.756,22.756c0,5.749,2.159,10.991,5.689,15.002v127.221
			c0,16.715-6.509,32.43-18.328,44.25l24.137,24.136c18.266-18.267,28.325-42.554,28.325-68.386V185.668
			c3.529-4.01,5.689-9.252,5.689-15.002C420.978,158.119,410.77,147.911,398.222,147.911z"/>
	</g>
</g>
<g>
</g>
<g>
</g>
<g>
</g>
<g>
</g>
<g>
</g>
<g>
</g>
<g>
</g>
<g>
</g>
<g>
</g>
<g>
</g>
<g>
</g>
<g>
</g>
<g>
</g>
<g>
</g>
<g>
</g>
</svg>
