<?xml version='1.0' encoding='utf-8'?>
<!DOCTYPE svg PUBLIC '-//W3C//DTD SVG 1.1//EN' 'http://www.w3.org/Graphics/SVG/1.1/DTD/svg11.dtd'>
<svg version="1.1" xmlns="http://www.w3.org/2000/svg" viewBox="0 0 512 512" xmlns:xlink="http://www.w3.org/1999/xlink" enable-background="new 0 0 512 512">
  <g>
    <g>
      <path d="m480.7,11c-11.3,0-20.4,9.1-20.4,20.4v92.9l-77.1,42.2c-32.7-45.9-90.2-63.8-133.5-39.9l-227.8,120.9c-9.9,5.3-13.7,17.7-8.5,27.6 5.3,9.9 17.6,13.7 27.6,8.5l30.5-16.2c1.5,22.4 8.3,49.7 24.3,74.2 38.7,59.3 80.2,82.4 110.4,68.4l154.4-85.4c32.9-18.6 59.1-63.6 40.8-121.6l58.9-32.2v309.7c0,11.3 9.1,20.4 20.4,20.4s20.4-9.1 20.4-20.4v-449.1c1.13687e-13-11.3-9.2-20.4-20.4-20.4zm-349.3,310.5c-21.8-38.5-21.6-69-16.3-73.5 10.3,0 35,18.4 54.5,52.8 21.8,38.5 21.6,69 17,73.4 0,0-0.2,0.1-0.7,0.1-10.4-5.68434e-14-35-18.4-54.5-52.8zm209.4-32.7l-111.8,61.9c-2.2-21.4-10.4-46.2-23.9-70-14.2-25.1-31.6-45.2-49.3-58l113.2-60.2c24.3-13.4 56.9-2.7 77.9,23.7l-65.2,35.8c-9.9,5.4-13.5,17.8-8.1,27.7 5.4,9.9 17.8,13.5 27.7,8.1l63.3-34.6c3.8,13 3.8,51.6-23.8,65.6z"/>
    </g>
  </g>
</svg>
