<?xml version="1.0" encoding="iso-8859-1"?>
<!-- Generator: Adobe Illustrator 19.0.0, SVG Export Plug-In . SVG Version: 6.00 Build 0)  -->
<svg version="1.1" id="Layer_1" xmlns="http://www.w3.org/2000/svg" xmlns:xlink="http://www.w3.org/1999/xlink" x="0px" y="0px"
	 viewBox="0 0 512 512" style="enable-background:new 0 0 512 512;" xml:space="preserve">
<g>
	<g>
		<path d="M318.578,45.511H193.422c-6.283,0-11.378,5.094-11.378,11.378c0,6.283,5.094,11.378,11.378,11.378h125.156
			c6.283,0,11.378-5.094,11.378-11.378C329.956,50.606,324.861,45.511,318.578,45.511z"/>
	</g>
</g>
<g>
	<g>
		<path d="M318.578,125.156H193.422c-6.283,0-11.378,5.094-11.378,11.378s5.094,11.378,11.378,11.378h125.156
			c6.283,0,11.378-5.094,11.378-11.378S324.861,125.156,318.578,125.156z"/>
	</g>
</g>
<g>
	<g>
		<path d="M318.578,204.8H193.422c-6.283,0-11.378,5.094-11.378,11.378s5.094,11.378,11.378,11.378h125.156
			c6.283,0,11.378-5.094,11.378-11.378S324.861,204.8,318.578,204.8z"/>
	</g>
</g>
<g>
	<g>
		<path d="M500.622,204.8H375.467c-6.283,0-11.378,5.094-11.378,11.378s5.094,11.378,11.378,11.378h125.156
			c6.283,0,11.378-5.094,11.378-11.378S506.906,204.8,500.622,204.8z"/>
	</g>
</g>
<g>
	<g>
		<path d="M318.578,284.444H193.422c-6.283,0-11.378,5.094-11.378,11.378s5.094,11.378,11.378,11.378h125.156
			c6.283,0,11.378-5.094,11.378-11.378S324.861,284.444,318.578,284.444z"/>
	</g>
</g>
<g>
	<g>
		<path d="M500.622,284.444H375.467c-6.283,0-11.378,5.094-11.378,11.378s5.094,11.378,11.378,11.378h125.156
			c6.283,0,11.378-5.094,11.378-11.378S506.906,284.444,500.622,284.444z"/>
	</g>
</g>
<g>
	<g>
		<path d="M318.578,364.089H193.422c-6.283,0-11.378,5.094-11.378,11.378s5.094,11.378,11.378,11.378h125.156
			c6.283,0,11.378-5.094,11.378-11.378S324.861,364.089,318.578,364.089z"/>
	</g>
</g>
<g>
	<g>
		<path d="M500.622,364.089H375.467c-6.283,0-11.378,5.094-11.378,11.378s5.094,11.378,11.378,11.378h125.156
			c6.283,0,11.378-5.094,11.378-11.378S506.906,364.089,500.622,364.089z"/>
	</g>
</g>
<g>
	<g>
		<path d="M136.533,364.089H11.378C5.094,364.089,0,369.183,0,375.467s5.094,11.378,11.378,11.378h125.156
			c6.283,0,11.378-5.094,11.378-11.378S142.817,364.089,136.533,364.089z"/>
	</g>
</g>
<g>
	<g>
		<path d="M500.622,443.733H11.378C5.094,443.733,0,448.828,0,455.111c0,6.283,5.094,11.378,11.378,11.378h489.244
			c6.283,0,11.378-5.094,11.378-11.378C512,448.828,506.906,443.733,500.622,443.733z"/>
	</g>
</g>
<g>
</g>
<g>
</g>
<g>
</g>
<g>
</g>
<g>
</g>
<g>
</g>
<g>
</g>
<g>
</g>
<g>
</g>
<g>
</g>
<g>
</g>
<g>
</g>
<g>
</g>
<g>
</g>
<g>
</g>
</svg>
