<?xml version="1.0" encoding="iso-8859-1"?>
<!-- Generator: Adobe Illustrator 18.0.0, SVG Export Plug-In . SVG Version: 6.00 Build 0)  -->
<!DOCTYPE svg PUBLIC "-//W3C//DTD SVG 1.1//EN" "http://www.w3.org/Graphics/SVG/1.1/DTD/svg11.dtd">
<svg version="1.1" id="Capa_1" xmlns="http://www.w3.org/2000/svg" xmlns:xlink="http://www.w3.org/1999/xlink" x="0px" y="0px"
	 viewBox="0 0 297 297" style="enable-background:new 0 0 297 297;" xml:space="preserve">
<g>
	<path d="M239.219,0H57.781C39.405,0,24.454,14.95,24.454,33.327v230.347c0,18.376,14.95,33.327,33.327,33.327h181.438
		c18.376,0,33.327-14.95,33.327-33.327V33.327C272.546,14.95,257.595,0,239.219,0z M252.698,263.673
		c0,7.432-6.047,13.479-13.479,13.479H57.781c-7.432,0-13.479-6.047-13.479-13.479V33.327c0-7.432,6.047-13.479,13.479-13.479
		h181.438c7.432,0,13.479,6.047,13.479,13.479V263.673z"/>
	<path d="M148.5,126.349c-39.183,0-71.061,31.878-71.061,71.061s31.878,71.06,71.061,71.06s71.061-31.877,71.061-71.06
		S187.683,126.349,148.5,126.349z M148.5,248.622c-28.239,0-51.213-22.974-51.213-51.212s22.975-51.213,51.213-51.213
		s51.213,22.975,51.213,51.213S176.739,248.622,148.5,248.622z"/>
	<path d="M148.5,100.785c13.054,0,23.673-10.619,23.673-23.673S161.554,53.438,148.5,53.438s-23.673,10.619-23.673,23.673
		S135.446,100.785,148.5,100.785z M148.5,67.332c5.393,0,9.78,4.387,9.78,9.78s-4.387,9.78-9.78,9.78s-9.78-4.387-9.78-9.78
		S143.107,67.332,148.5,67.332z"/>
	<path d="M148.5,119.625c23.442,0,42.513-19.071,42.513-42.513S171.942,34.599,148.5,34.599s-42.513,19.071-42.513,42.513
		S125.058,119.625,148.5,119.625z M148.5,46.507c16.875,0,30.604,13.729,30.604,30.604s-13.729,30.604-30.604,30.604
		s-30.604-13.729-30.604-30.604S131.625,46.507,148.5,46.507z"/>
	<path d="M148.5,156.372c-22.628,0-41.037,18.409-41.037,41.038c0,22.628,18.409,41.037,41.037,41.037s41.037-18.409,41.037-41.037
		C189.537,174.781,171.128,156.372,148.5,156.372z M148.5,223.561c-14.42,0-26.151-11.731-26.151-26.151
		c0-14.42,11.731-26.152,26.151-26.152s26.151,11.732,26.151,26.152C174.651,211.83,162.92,223.561,148.5,223.561z"/>
	<path d="M66.984,31.133c-1.826,0-3.622,0.744-4.911,2.035c-1.291,1.3-2.035,3.086-2.035,4.911c0,1.836,0.744,3.623,2.035,4.912
		c1.29,1.301,3.086,2.034,4.911,2.034c1.827,0,3.623-0.734,4.912-2.034c1.29-1.29,2.034-3.076,2.034-4.912
		c0-1.826-0.744-3.612-2.034-4.911C70.606,31.877,68.81,31.133,66.984,31.133z"/>
	<path d="M232.322,31.133c-1.826,0-3.623,0.744-4.912,2.035c-1.29,1.3-2.034,3.086-2.034,4.911c0,1.836,0.744,3.623,2.034,4.912
		c1.29,1.301,3.087,2.034,4.912,2.034c1.826,0,3.612-0.734,4.912-2.034c1.29-1.29,2.034-3.076,2.034-4.912
		c0-1.826-0.744-3.612-2.034-4.911C235.934,31.877,234.148,31.133,232.322,31.133z"/>
	<path d="M66.984,250.485c-1.826,0-3.622,0.744-4.911,2.034c-1.291,1.291-2.035,3.087-2.035,4.912c0,1.836,0.744,3.623,2.035,4.912
		c1.3,1.3,3.086,2.034,4.911,2.034c1.827,0,3.613-0.735,4.912-2.034c1.29-1.29,2.034-3.076,2.034-4.912
		c0-1.826-0.744-3.622-2.034-4.912C70.606,251.229,68.81,250.485,66.984,250.485z"/>
	<path d="M232.322,250.485c-1.835,0-3.623,0.744-4.912,2.034c-1.29,1.301-2.034,3.087-2.034,4.912c0,1.826,0.744,3.623,2.034,4.912
		c1.29,1.3,3.087,2.034,4.912,2.034c1.826,0,3.612-0.735,4.912-2.034c1.29-1.29,2.034-3.076,2.034-4.912
		c0-1.826-0.744-3.612-2.034-4.912C235.944,251.229,234.157,250.485,232.322,250.485z"/>
</g>
<g>
</g>
<g>
</g>
<g>
</g>
<g>
</g>
<g>
</g>
<g>
</g>
<g>
</g>
<g>
</g>
<g>
</g>
<g>
</g>
<g>
</g>
<g>
</g>
<g>
</g>
<g>
</g>
<g>
</g>
</svg>
