<?xml version="1.0" encoding="iso-8859-1"?>
<!-- Generator: Adobe Illustrator 19.0.0, SVG Export Plug-In . SVG Version: 6.00 Build 0)  -->
<svg version="1.1" id="Capa_1" xmlns="http://www.w3.org/2000/svg" xmlns:xlink="http://www.w3.org/1999/xlink" x="0px" y="0px"
	 viewBox="0 0 58 58" style="enable-background:new 0 0 58 58;" xml:space="preserve">
<path d="M54.5,20h-1v-6c0-1.654-1.346-3-3-3s-3,1.346-3,3v6h-1v9h1v5h2v2.648c0,6.891-3.57,13.825-11.301,17.214
	C41.445,50.932,43.5,46.707,43.5,42c0-8.822-7.178-16-16-16s-16,7.178-16,16c0,3.254,0.982,6.281,2.658,8.81
	C10.677,47.451,8.5,42.749,8.5,37.541V23h2v-5h1V9h-1V3c0-1.654-1.346-3-3-3s-3,1.346-3,3v6h-1v9h1v5h2v15.514h0.023
	C7.033,49.345,16.004,58,26.959,58c0.132,0,0.261-0.006,0.393-0.008c0.05,0,0.098,0.008,0.148,0.008c0.11,0,0.216-0.014,0.326-0.017
	C41.809,57.638,51.5,48.966,51.5,36.648V34h2v-5h1V20z M6.5,6h2v3h-2V6z M27.843,55.983c-0.164,0.004-0.328,0.008-0.494,0.01
	C21.354,55.91,16.5,51.014,16.5,45c0-6.065,4.935-11,11-11s11,4.935,11,11C38.5,50.95,33.749,55.799,27.843,55.983z M27.5,28
	c7.72,0,14,6.28,14,14c0,2.137-0.496,4.156-1.356,5.97C40.369,47.015,40.5,46.023,40.5,45c0-7.168-5.832-13-13-13s-13,5.832-13,13
	c0,1.023,0.131,2.015,0.356,2.97C13.996,46.156,13.5,44.137,13.5,42C13.5,34.28,19.78,28,27.5,28z M49.5,17h2v3h-2V17z"/>
<g>
</g>
<g>
</g>
<g>
</g>
<g>
</g>
<g>
</g>
<g>
</g>
<g>
</g>
<g>
</g>
<g>
</g>
<g>
</g>
<g>
</g>
<g>
</g>
<g>
</g>
<g>
</g>
<g>
</g>
</svg>
