<?xml version="1.0" encoding="iso-8859-1"?>
<!-- Generator: Adobe Illustrator 19.0.0, SVG Export Plug-In . SVG Version: 6.00 Build 0)  -->
<svg version="1.1" id="Capa_1" xmlns="http://www.w3.org/2000/svg" xmlns:xlink="http://www.w3.org/1999/xlink" x="0px" y="0px"
	 viewBox="0 0 512.001 512.001" style="enable-background:new 0 0 512.001 512.001;" xml:space="preserve">
<g>
	<g>
		<path d="M488.727,38.788H333.576c-12.853,0-23.273,10.42-23.273,23.273v178.424H201.697V62.061
			c0-12.853-10.42-23.273-23.273-23.273H23.273C10.42,38.788,0,49.208,0,62.061V449.94c0,12.853,10.42,23.273,23.273,23.273h155.151
			h155.152h155.152c12.853,0,23.273-10.42,23.273-23.273V62.061C512,49.208,501.58,38.788,488.727,38.788z M155.152,426.667H46.545
			V85.333h108.606v178.425h0.001V426.667z M310.303,426.667H201.697v-46.545h108.606V426.667z M310.303,333.576H201.697V287.03
			h108.606V333.576z M465.455,426.667H356.849V263.758V85.333h108.606V426.667z"/>
	</g>
</g>
<g>
	<g>
		<path d="M427.613,138.69c-4.344-4.329-10.333-6.811-16.462-6.811c-6.128,0-12.117,2.482-16.462,6.811
			c-4.329,4.344-6.811,10.333-6.811,16.462c0,6.129,2.482,12.117,6.811,16.462c4.344,4.329,10.333,6.811,16.462,6.811
			c6.129,0,12.117-2.482,16.462-6.811c4.329-4.344,6.811-10.333,6.811-16.462C434.424,149.023,431.942,143.034,427.613,138.69z"/>
	</g>
</g>
<g>
	<g>
		<path d="M427.613,231.781c-4.329-4.329-10.333-6.811-16.462-6.811c-6.129,0-12.133,2.482-16.462,6.811
			c-4.329,4.344-6.811,10.333-6.811,16.462c0,6.129,2.482,12.117,6.811,16.462c4.344,4.329,10.333,6.811,16.462,6.811
			c6.129,0,12.117-2.482,16.462-6.811c4.329-4.329,6.811-10.333,6.811-16.462C434.424,242.114,431.942,236.11,427.613,231.781z"/>
	</g>
</g>
<g>
	<g>
		<path d="M117.31,138.69c-4.344-4.329-10.333-6.811-16.462-6.811c-6.129,0-12.117,2.482-16.462,6.811
			c-4.329,4.344-6.811,10.333-6.811,16.462c0,6.129,2.482,12.133,6.811,16.462c4.344,4.329,10.333,6.811,16.462,6.811
			c6.129,0,12.117-2.482,16.462-6.811c4.329-4.329,6.811-10.333,6.811-16.462C124.121,149.023,121.639,143.034,117.31,138.69z"/>
	</g>
</g>
<g>
	<g>
		<path d="M117.31,231.781c-4.344-4.329-10.333-6.811-16.462-6.811c-6.129,0-12.133,2.482-16.462,6.811
			c-4.329,4.329-6.811,10.333-6.811,16.462c0,6.129,2.482,12.133,6.811,16.462c4.344,4.329,10.333,6.811,16.462,6.811
			c6.129,0,12.117-2.482,16.462-6.811c4.329-4.344,6.811-10.333,6.811-16.462C124.121,242.114,121.639,236.125,117.31,231.781z"/>
	</g>
</g>
<g>
</g>
<g>
</g>
<g>
</g>
<g>
</g>
<g>
</g>
<g>
</g>
<g>
</g>
<g>
</g>
<g>
</g>
<g>
</g>
<g>
</g>
<g>
</g>
<g>
</g>
<g>
</g>
<g>
</g>
</svg>
